<svg width="500" height="500" viewBox="0 0 500 500" fill="none" xmlns="http://www.w3.org/2000/svg">
<rect width="500" height="500" fill="black"/>
<path d="M299.478 309.824L278.188 338.27L360.666 400L381.957 371.554L299.478 309.824Z" fill="#FF9900"/>
<path d="M388.593 352.56H245.27C226.011 352.56 208.221 349.599 191.875 343.702C175.529 337.78 161.385 329.313 149.443 318.301C137.502 307.29 128.105 293.831 121.278 277.949C114.45 262.068 111 244.131 111 224.188C111 206.104 114.426 189.464 121.253 174.268C128.08 159.072 137.428 145.98 149.247 134.968C161.067 123.957 174.819 115.367 190.456 109.225C206.117 103.083 222.757 100 240.376 100C257.994 100 274.634 103.083 290.295 109.225C305.956 115.367 319.684 123.957 331.504 134.968C343.323 145.98 352.671 159.072 359.498 174.268C366.325 189.464 369.751 206.08 369.751 224.163C369.751 237.157 368.185 248.56 365.053 258.422C361.92 268.284 357.809 276.971 352.695 284.508C347.605 292.044 341.977 298.358 335.835 303.448C329.693 308.538 323.722 312.844 317.923 316.319V317.004H388.569L388.593 352.56ZM239.348 139.618C227.504 139.618 216.541 141.771 206.435 146.053C196.329 150.336 187.642 156.307 180.325 163.966C173.008 171.625 167.258 180.679 163.098 191.104C158.938 201.528 156.833 212.907 156.833 225.216C156.833 237.744 158.913 249.392 163.098 260.184C167.282 270.975 173.082 280.25 180.496 288.031C187.935 295.813 196.696 301.906 206.778 306.311C216.884 310.715 227.945 312.918 240.033 312.918C252.121 312.918 263.304 310.715 273.631 306.311C283.957 301.906 292.84 295.813 300.255 288.031C307.694 280.25 313.493 270.975 317.678 260.184C321.862 249.392 323.942 237.744 323.942 225.216C323.942 212.907 321.862 201.553 317.678 191.104C313.493 180.655 307.694 171.601 300.255 163.966C292.816 156.331 283.957 150.336 273.631 146.053C263.304 141.747 251.877 139.618 239.348 139.618Z" fill="white"/>
</svg>
