<svg width="337" height="100" viewBox="0 0 337 100" fill="none" xmlns="http://www.w3.org/2000/svg">
<path d="M57.9103 64.4691L51.3688 73.2093L76.7105 92.176L83.2519 83.4358L57.9103 64.4691Z" fill="#FF9900"/>
<path d="M85.2912 77.5996H41.2547C35.3375 77.5996 29.8715 76.6899 24.849 74.8779C19.8266 73.0584 15.4808 70.457 11.8117 67.0736C8.14266 63.6902 5.25551 59.555 3.15782 54.6754C1.06012 49.7958 0 44.2847 0 38.157C0 32.6007 1.05261 27.4881 3.1503 22.819C5.24799 18.1499 8.12011 14.1275 11.7516 10.7441C15.3831 7.36072 19.6086 4.72169 24.413 2.83452C29.2249 0.947347 34.3375 0 39.7509 0C45.1643 0 50.277 0.947347 55.0889 2.83452C59.9008 4.72169 64.1188 7.36072 67.7503 10.7441C71.3818 14.1275 74.2539 18.1499 76.3516 22.819C78.4492 27.4881 79.5018 32.5932 79.5018 38.1495C79.5018 42.1418 79.0207 45.6455 78.0583 48.6755C77.0959 51.7055 75.8328 54.3746 74.2614 56.6904C72.6975 59.0061 70.9682 60.9459 69.081 62.5098C67.1939 64.0736 65.3593 65.3969 63.5774 66.4646V66.6751H85.2837L85.2912 77.5996ZM39.4351 12.1726C35.7961 12.1726 32.4278 12.8343 29.3226 14.15C26.2174 15.4658 23.5483 17.3003 21.3002 19.6537C19.0522 22.007 17.2853 24.7889 16.0071 27.9918C14.729 31.1947 14.0824 34.6909 14.0824 38.4728C14.0824 42.3223 14.7215 45.9012 16.0071 49.2169C17.2928 52.5326 19.0747 55.3821 21.3529 57.7731C23.6385 60.164 26.3302 62.0361 29.4279 63.3895C32.5331 64.7428 35.9315 65.4195 39.6457 65.4195C43.3599 65.4195 46.7959 64.7428 49.9687 63.3895C53.1416 62.0361 55.8708 60.164 58.149 57.7731C60.4346 55.3821 62.2166 52.5326 63.5022 49.2169C64.7879 45.9012 65.427 42.3223 65.427 38.4728C65.427 34.6909 64.7879 31.2023 63.5022 27.9918C62.2166 24.7814 60.4346 21.9995 58.149 19.6537C55.8633 17.3079 53.1416 15.4658 49.9687 14.15C46.7959 12.8268 43.2847 12.1726 39.4351 12.1726Z" fill="black"/>
<path d="M121.855 78.2843C118.443 78.2843 115.299 77.8986 112.421 77.1273C109.543 76.3857 106.962 75.4512 104.678 74.3239C102.423 73.1669 100.48 71.9802 98.8487 70.7639C97.2171 69.5476 95.9266 68.4796 94.9773 67.5599L102.364 55.6341C103.343 56.4944 104.515 57.4586 105.88 58.5266C107.244 59.5946 108.772 60.618 110.463 61.597C112.154 62.5463 113.979 63.3473 115.936 64C117.924 64.623 120.03 64.9345 122.255 64.9345C124.332 64.9345 126.157 64.6081 127.729 63.9555C129.331 63.3028 130.592 62.3387 131.511 61.063C132.431 59.7577 132.891 58.1409 132.891 56.2126C132.891 54.4623 132.52 52.979 131.778 51.7627C131.037 50.5167 129.939 49.4042 128.485 48.4252C127.061 47.4165 125.296 46.4376 123.19 45.4882C121.113 44.5093 118.74 43.4413 116.07 42.2843C114.082 41.3943 112.184 40.3856 110.374 39.2583C108.594 38.1013 107.007 36.7664 105.613 35.2534C104.218 33.7404 103.106 32.0346 102.275 30.136C101.474 28.2076 101.074 26.0568 101.074 23.6835C101.074 20.8652 101.637 18.1656 102.765 15.5846C103.892 13.0037 105.494 10.7045 107.571 8.68724C109.677 6.66994 112.169 5.06796 115.046 3.88131C117.954 2.69466 121.187 2.10133 124.747 2.10133C127.417 2.10133 130.087 2.45733 132.757 3.16932C135.427 3.88131 137.919 4.81579 140.233 5.97278C142.547 7.12977 144.505 8.39058 146.107 9.75523L140.1 21.0581C138.824 19.9604 137.37 18.9814 135.739 18.1211C134.137 17.2311 132.416 16.5191 130.577 15.9851C128.767 15.4512 126.928 15.1842 125.059 15.1842C122.953 15.1842 121.158 15.555 119.674 16.2966C118.221 17.0383 117.093 18.0321 116.292 19.2781C115.521 20.4944 115.135 21.8591 115.135 23.372C115.135 24.618 115.388 25.686 115.892 26.576C116.426 27.4363 117.168 28.1928 118.117 28.8455C119.066 29.4685 120.208 30.0766 121.543 30.6699C122.878 31.2336 124.347 31.8418 125.949 32.4944C129.39 33.9481 132.505 35.3869 135.294 36.8109C138.082 38.2348 140.47 39.822 142.458 41.5723C144.446 43.2929 145.959 45.3102 146.997 47.6242C148.065 49.9382 148.599 52.6971 148.599 55.9011C148.599 60.5884 147.472 64.6081 145.217 67.9604C142.992 71.3127 139.877 73.8789 135.872 75.6588C131.867 77.4091 127.195 78.2843 121.855 78.2843Z" fill="black"/>
<path d="M161.427 76.8603V0.321359H175.089V36.3659C176.839 34.4079 179.019 32.8356 181.63 31.6489C184.27 30.4623 187.178 29.869 190.352 29.869C193.853 29.869 196.923 30.6403 199.563 32.1829C202.233 33.6959 204.325 35.817 205.838 38.5463C207.351 41.246 208.107 44.4054 208.107 48.0247V76.8603H194.446V50.9172C194.446 47.6539 193.586 45.1174 191.865 43.3078C190.174 41.4685 187.845 40.5488 184.879 40.5488C182.861 40.5488 181.111 40.9641 179.628 41.7948C178.174 42.5958 177.047 43.7083 176.246 45.1322C175.474 46.5266 175.089 48.1137 175.089 49.8937V76.8603H161.427Z" fill="black"/>
<path d="M246.004 78.2843C240.99 78.2843 236.466 77.2608 232.432 75.2138C228.397 73.1372 225.193 70.2892 222.82 66.67C220.447 63.021 219.26 58.8232 219.26 54.0766C219.26 49.33 220.432 45.1471 222.775 41.5278C225.149 37.8788 228.353 35.0309 232.387 32.9839C236.451 30.9073 240.99 29.869 246.004 29.869C251.047 29.869 255.586 30.9073 259.621 32.9839C263.655 35.0309 266.845 37.8788 269.188 41.5278C271.562 45.1471 272.748 49.33 272.748 54.0766C272.748 58.8232 271.562 63.021 269.188 66.67C266.845 70.2892 263.655 73.1372 259.621 75.2138C255.586 77.2608 251.047 78.2843 246.004 78.2843ZM246.049 66.6255C248.362 66.6255 250.469 66.0915 252.367 65.0235C254.266 63.9555 255.764 62.487 256.862 60.618C257.96 58.7194 258.508 56.5389 258.508 54.0766C258.508 51.6143 257.96 49.4487 256.862 47.5797C255.764 45.6811 254.266 44.1978 252.367 43.1298C250.469 42.0618 248.362 41.5278 246.049 41.5278C243.705 41.5278 241.584 42.0618 239.685 43.1298C237.816 44.1978 236.333 45.6811 235.235 47.5797C234.138 49.4487 233.589 51.6143 233.589 54.0766C233.589 56.5389 234.138 58.7194 235.235 60.618C236.333 62.487 237.816 63.9555 239.685 65.0235C241.584 66.0915 243.705 66.6255 246.049 66.6255Z" fill="black"/>
<path d="M284.67 100V31.2929H298.331V36.8554C300.17 34.6304 302.455 32.9097 305.184 31.6934C307.913 30.4771 310.85 29.869 313.995 29.869C318.386 29.869 322.287 30.9221 325.698 33.0284C329.14 35.1347 331.839 38.0123 333.797 41.6613C335.785 45.3102 336.779 49.4487 336.779 54.0766C336.779 58.6452 335.8 62.7688 333.842 66.4475C331.884 70.0964 329.199 72.9889 325.787 75.1248C322.405 77.2311 318.578 78.2843 314.306 78.2843C311.191 78.2843 308.255 77.6465 305.496 76.3708C302.737 75.0655 300.348 73.2262 298.331 70.8529V100H284.67ZM310.257 66.67C312.63 66.67 314.722 66.136 316.531 65.068C318.371 63.9703 319.81 62.487 320.848 60.618C321.886 58.7194 322.405 56.5538 322.405 54.1211C322.405 51.6885 321.871 49.5229 320.803 47.6242C319.735 45.7256 318.297 44.2274 316.487 43.1298C314.677 42.0321 312.601 41.4833 310.257 41.4833C307.913 41.4833 305.807 42.0321 303.938 43.1298C302.099 44.2274 300.645 45.7256 299.577 47.6242C298.509 49.4932 297.975 51.6588 297.975 54.1211C297.975 56.5241 298.494 58.6749 299.533 60.5735C300.601 62.4722 302.069 63.9703 303.938 65.068C305.807 66.136 307.913 66.67 310.257 66.67Z" fill="black"/>
</svg>
