<svg xmlns="http://www.w3.org/2000/svg" viewBox="0 0 500 500"><g id="freepik--background-complete--inject-11"><path d="M435,48.42a2.67,2.67,0,0,1-2.79,0l-.71-.41-.74-.37a2.64,2.64,0,0,1-1.55-2.3l-.11-3.43L418,42.24l.11,3.42a2.65,2.65,0,0,1-1.41,2.41c-.48.27-1,.56-1.41.88a2.64,2.64,0,0,1-2.77.17l-3-1.61-5.28,9.84,3,1.62a2.64,2.64,0,0,1,1.38,2.4,15.44,15.44,0,0,0,.06,1.67,2.66,2.66,0,0,1-1.23,2.5l-2.91,1.8,5.88,9.49L413.31,75a2.63,2.63,0,0,1,2.77,0c.24.14.47.28.72.41l.73.37a2.66,2.66,0,0,1,1.56,2.31l.1,3.43,11.16-.35-.11-3.42a2.68,2.68,0,0,1,1.4-2.41,13.94,13.94,0,0,0,1.42-.88,2.65,2.65,0,0,1,2.78-.17l3,1.61,5.28-9.84-3-1.62a2.66,2.66,0,0,1-1.38-2.41c0-.56,0-1.11-.05-1.67a2.62,2.62,0,0,1,1.23-2.49l2.9-1.8-5.88-9.49Zm-2.8,17.63a9.15,9.15,0,1,1-3.74-12.39A9.15,9.15,0,0,1,432.22,66.05Z" style="fill:#ebebeb"></path><path d="M403.42,88.15a1.85,1.85,0,0,1-1.72.91h-1.16a1.84,1.84,0,0,1-1.72-.9l-1.2-2.08L390.85,90,392,92.07a1.85,1.85,0,0,1-.06,2,10.08,10.08,0,0,0-.59,1,1.85,1.85,0,0,1-1.65,1h-2.4v7.83h2.4a1.86,1.86,0,0,1,1.65,1,9.19,9.19,0,0,0,.59,1,1.85,1.85,0,0,1,.06,2l-1.19,2.08,6.77,3.91,1.21-2.09a1.86,1.86,0,0,1,1.72-.9h1.15a1.85,1.85,0,0,1,1.72.91l1.2,2.08,6.78-3.91-1.2-2.07a1.85,1.85,0,0,1,.07-2c.21-.33.4-.67.58-1a1.85,1.85,0,0,1,1.65-1h2.4V96.05h-2.4a1.85,1.85,0,0,1-1.65-1c-.18-.35-.37-.68-.58-1a1.85,1.85,0,0,1-.07-2L411.4,90l-6.78-3.91ZM407.53,100a6.41,6.41,0,1,1-6.41-6.4A6.41,6.41,0,0,1,407.53,100Z" style="fill:#ebebeb"></path><path d="M81.57,338a1.87,1.87,0,0,1-.91-1.73c0-.19,0-.38,0-.58s0-.39,0-.58a1.85,1.85,0,0,1,.91-1.72l2.08-1.2-3.91-6.77-2.08,1.2a1.87,1.87,0,0,1-2-.07c-.33-.21-.66-.41-1-.59a1.87,1.87,0,0,1-1-1.65v-2.39H65.85v2.39a1.85,1.85,0,0,1-1,1.65c-.35.18-.68.38-1,.59a1.87,1.87,0,0,1-2,.07l-2.08-1.2-3.91,6.77L58,333.36a1.87,1.87,0,0,1,.91,1.72c0,.19,0,.38,0,.57s0,.39,0,.58A1.87,1.87,0,0,1,58,338l-2.09,1.2,3.91,6.78,2.08-1.2a1.85,1.85,0,0,1,2,.07,9.12,9.12,0,0,0,1,.58,1.86,1.86,0,0,1,1,1.66v2.39h7.82V347a1.87,1.87,0,0,1,1-1.66,10.29,10.29,0,0,0,1-.58,1.84,1.84,0,0,1,1.94-.07l2.08,1.2,3.91-6.78Zm-11.81,4.1a6.41,6.41,0,1,1,6.41-6.41A6.42,6.42,0,0,1,69.76,342.06Z" style="fill:#ebebeb"></path><polygon points="270.31 396.85 457.01 396.85 460.89 320.25 266.43 320.25 270.31 396.85" style="fill:#ebebeb"></polygon><path d="M448.16,355.31H370.11l-1.47-26.59h81.23ZM371,354.37h76.28l1.58-24.71H369.64Z" style="fill:#dbdbdb"></path><path d="M446.72,385.91H373.17l-1.2-24h76.25ZM374.06,385h71.78l1.38-22.13H373Z" style="fill:#dbdbdb"></path><path d="M416.65,344.9H403.53l-.82-6.42h14.77ZM404.36,344h11.46l.59-4.53H403.78Z" style="fill:#dbdbdb"></path><path d="M416.65,377.11H403.53l-.82-6.41h14.77Zm-12.29-.94h11.46l.59-4.53H403.78Z" style="fill:#dbdbdb"></path><path d="M356.35,355.31H278.3l-1.47-26.59h81.23Zm-77.16-.94h76.28l1.58-24.71H277.83Z" style="fill:#dbdbdb"></path><path d="M354.91,385.91H281.35l-1.19-24h76.25ZM282.25,385H354l1.39-22.13H281.15Z" style="fill:#dbdbdb"></path><path d="M324.84,344.9H311.72l-.82-6.42h14.77ZM312.55,344H324l.59-4.53H312Z" style="fill:#dbdbdb"></path><path d="M324.84,377.11H311.72l-.82-6.41h14.77Zm-12.29-.94H324l.59-4.53H312Z" style="fill:#dbdbdb"></path><polygon points="287.05 396.85 285.88 405.2 283.52 421.97 278.91 421.97 278.91 396.85 287.05 396.85" style="fill:#ebebeb"></polygon><polygon points="287.05 396.85 285.88 405.2 278.91 405.2 278.91 396.85 287.05 396.85" style="fill:#dbdbdb"></polygon><polygon points="440.27 396.85 441.44 405.2 443.8 421.97 448.41 421.97 448.41 396.85 440.27 396.85" style="fill:#ebebeb"></polygon><polygon points="440.27 396.85 441.44 405.2 448.41 405.2 448.41 396.85 440.27 396.85" style="fill:#dbdbdb"></polygon><circle cx="120.66" cy="287.84" r="10.69" style="fill:#ebebeb;opacity:0.5"></circle><path d="M113.59,287.84a7.08,7.08,0,1,1,7.07,7.07A7.07,7.07,0,0,1,113.59,287.84Z" style="fill:#ebebeb"></path><circle cx="228.67" cy="125.64" r="10.69" style="fill:#ebebeb;opacity:0.5"></circle><circle cx="228.67" cy="125.64" r="7.08" style="fill:#ebebeb"></circle><circle cx="363.95" cy="173.57" r="10.69" style="fill:#ebebeb;opacity:0.5"></circle><circle cx="363.95" cy="173.57" r="7.08" style="fill:#ebebeb"></circle><circle cx="366.13" cy="314.81" r="10.69" style="fill:#ebebeb;opacity:0.5"></circle><path d="M359.05,314.81a7.08,7.08,0,1,1,7.08,7.08A7.08,7.08,0,0,1,359.05,314.81Z" style="fill:#ebebeb"></path><circle cx="127.75" cy="143.46" r="8.51" style="fill:#ebebeb;opacity:0.5"></circle><circle cx="127.75" cy="143.46" r="5.63" style="fill:#ebebeb"></circle><circle cx="395.03" cy="278.2" r="5.63" style="fill:#ebebeb;opacity:0.5"></circle><path d="M391.3,278.2a3.73,3.73,0,1,1,3.73,3.73A3.73,3.73,0,0,1,391.3,278.2Z" style="fill:#ebebeb"></path><path d="M129,195.08a5.64,5.64,0,1,1,5.63,5.63A5.63,5.63,0,0,1,129,195.08Z" style="fill:#ebebeb;opacity:0.5"></path><path d="M131,195.08a3.73,3.73,0,1,1,3.72,3.73A3.72,3.72,0,0,1,131,195.08Z" style="fill:#ebebeb"></path><path d="M212.73,297.45a5.63,5.63,0,1,1,5.63,5.63A5.64,5.64,0,0,1,212.73,297.45Z" style="fill:#ebebeb;opacity:0.5"></path><path d="M214.63,297.45a3.73,3.73,0,1,1,3.73,3.73A3.73,3.73,0,0,1,214.63,297.45Z" style="fill:#ebebeb"></path><path d="M197.74,187.57a5.63,5.63,0,1,1,5.63,5.64A5.63,5.63,0,0,1,197.74,187.57Z" style="fill:#ebebeb;opacity:0.5"></path><path d="M199.64,187.57a3.73,3.73,0,1,1,3.73,3.73A3.73,3.73,0,0,1,199.64,187.57Z" style="fill:#ebebeb"></path><path d="M296.2,79.8a5.63,5.63,0,1,1,5.63,5.64A5.63,5.63,0,0,1,296.2,79.8Z" style="fill:#ebebeb;opacity:0.5"></path><path d="M298.1,79.8a3.73,3.73,0,1,1,3.73,3.73A3.73,3.73,0,0,1,298.1,79.8Z" style="fill:#ebebeb"></path><circle cx="372.85" cy="117.97" r="5.63" style="fill:#ebebeb;opacity:0.5"></circle><path d="M369.12,118a3.73,3.73,0,1,1,3.73,3.73A3.73,3.73,0,0,1,369.12,118Z" style="fill:#ebebeb"></path><path d="M252.21,338.15a5.64,5.64,0,1,1,5.64,5.64A5.64,5.64,0,0,1,252.21,338.15Z" style="fill:#ebebeb;opacity:0.5"></path><path d="M254.12,338.15a3.73,3.73,0,1,1,3.73,3.73A3.73,3.73,0,0,1,254.12,338.15Z" style="fill:#ebebeb"></path><path d="M201.47,364.31a5.63,5.63,0,1,1,5.63,5.63A5.64,5.64,0,0,1,201.47,364.31Z" style="fill:#ebebeb;opacity:0.5"></path><path d="M203.37,364.31A3.73,3.73,0,1,1,207.1,368,3.73,3.73,0,0,1,203.37,364.31Z" style="fill:#ebebeb"></path><path d="M155.89,268a2.64,2.64,0,1,1,2.63,2.64A2.63,2.63,0,0,1,155.89,268Z" style="fill:#ebebeb"></path><circle cx="337.76" cy="117.97" r="2.64" style="fill:#ebebeb"></circle><path d="M337.76,338.15a2.64,2.64,0,1,1,2.64,2.64A2.64,2.64,0,0,1,337.76,338.15Z" style="fill:#ebebeb"></path><path d="M372.85,240.1a2.64,2.64,0,1,1,2.64,2.63A2.64,2.64,0,0,1,372.85,240.1Z" style="fill:#ebebeb"></path><path d="M91.55,214.17a2.64,2.64,0,1,1,2.64,2.63A2.64,2.64,0,0,1,91.55,214.17Z" style="fill:#ebebeb"></path><path d="M312.23,200.46a2.64,2.64,0,1,1,2.64,2.64A2.64,2.64,0,0,1,312.23,200.46Z" style="fill:#ebebeb"></path><path d="M406,189.32a2.64,2.64,0,1,1,2.63,2.64A2.63,2.63,0,0,1,406,189.32Z" style="fill:#ebebeb"></path><path d="M153.25,91.71a2.64,2.64,0,1,1,2.64,2.64A2.64,2.64,0,0,1,153.25,91.71Z" style="fill:#ebebeb"></path><path d="M248.65,156.28a2.64,2.64,0,1,1,2.64,2.63A2.64,2.64,0,0,1,248.65,156.28Z" style="fill:#ebebeb"></path><circle cx="256.59" cy="58.26" r="2.64" style="fill:#ebebeb"></circle><circle cx="282.1" cy="290.47" r="2.64" style="fill:#ebebeb"></circle><path d="M278.63,371.17a2.64,2.64,0,1,1,2.63,2.64A2.64,2.64,0,0,1,278.63,371.17Z" style="fill:#ebebeb"></path><path d="M157.19,329.88a2.64,2.64,0,1,1,2.63,2.64A2.63,2.63,0,0,1,157.19,329.88Z" style="fill:#ebebeb"></path><path d="M301.77,79.47l.06.07,36,38.35,70.87,71.39v.06l-13.56,88.91,0,0-28.9,36.61-25.75,23.36-59.24,33.08-.06-.08-23.42-33-39.41-40.59L159.8,330l-.06-.07-39.18-42.08-26.5-73.72,0,0,33.59-70.76h.06l100.89-17.82ZM408.46,189.36l-70.78-71.31L301.73,79.77l-73,46L127.83,143.57l-33.52,70.6,26.46,73.6,39.08,42,58.53-32.4.06.06,39.49,40.67L281.3,371l59-33,25.71-23.32,28.87-36.58Z" style="fill:#ebebeb"></path><path d="M155.84,91.56l.1,0,72.8,34,0,0,22.61,30.62,63.43,44.09,22.93-82.64.13.28,26.21,55.63,11.54,66.56v0l-35.13,98.15-.1,0-73.85-16.91-8.61,16.92h-.07L159.71,330v-.1l-.7-33.15L120.64,288l0-.23,38.22,3.78-.49-23.56v0l44.74-80.21-68.59,7.5v-.11l-6.93-51.66,0,0Zm72.75,34.17L155.94,91.86l-28.07,51.62,6.9,51.47,68.81-7.52-.11.2L158.64,268l.49,23.52,59.24,5.85,63.93-7-.09.2-15.58,30.61L340.32,338l35.05-97.93L363.84,173.6l-26-55.3-22.86,82.35-.13-.09-63.61-44.21Zm-69.68,166-36.44-3.6L159,296.5ZM266.4,321.09l15.5-30.48-63.53,7-59.23-5.85.1,4.8Zm-.11.21-107-24.51.7,33L257.78,338Z" style="fill:#ebebeb"></path><polygon points="159.89 329.79 207.17 364.21 207.03 364.4 159.75 329.98 159.89 329.79" style="fill:#ebebeb"></polygon><path d="M256.6,58.13l0,0L301.77,79.5l.82-.07-.56.21,70.91,38.25v0l35.72,71.31.42.15-.44.05-33,50.67,19.57,38.16-.12.05-60.73,26.54,6.23,33.59-.25-.2-28.69-23.47-29.8,13-.45,43.5h-.13l-74.56-6.9.35-.19,50.75-26.15,23.81-10.4.39-37.42.19.15,29.49,24.12,22.41-9.79L314.73,200.36h.12l93.22-11.08-44.16-15.59L251.31,156.4l-48,31.34-.06-.11-30.07-60.72-45.33,16.64-2.74,55.91,9.5-4.48.1.21-9.61,4.53-1.9,38.57L158.73,268l-.15.08-38,19.95L123,238.39,94,214.14l.17-.08,30.74-14.49,2.76-56.19.07,0,45.38-16.65L155.71,91.61h.15Zm44.71,21.41L256.58,58.38,156.84,91.51Zm71.45,38.52-71-38.32L173.41,126.83l30,60.57,47.84-31.24h.05L364,173.45l44.38,15.67Zm-199.45,8.56L300.9,79.8l-144.83,12ZM394.87,278.14l-19.52-38,0-.06,33-50.56L315,200.57l19.29,104ZM123,238.1l1.88-38.27L94.4,214.19ZM158.32,268,123.2,238.58l-2.41,49.06Zm153.11,46.66-29.21-23.89-.39,36.82Zm28.79,23.25-6.1-32.92-22.25,9.73ZM281.15,371l.45-43.14-23.71,10.36-50.39,26Z" style="fill:#ebebeb"></path><circle cx="80.3" cy="86.08" r="32.2" transform="translate(-17.42 20.44) rotate(-13.1)" style="fill:#ebebeb"></circle><circle cx="81.77" cy="86.79" r="30.72" transform="translate(-17.55 20.8) rotate(-13.11)" style="fill:#dbdbdb"></circle><circle cx="81.77" cy="86.79" r="28.78" transform="translate(-26.64 37.12) rotate(-22.09)" style="fill:#fff"></circle><path d="M109.9,80.69c-13.1,7.94-34.65,21-46.69,28.11a29,29,0,0,1-7.86-10.58L95.17,61.31A28.86,28.86,0,0,1,109.9,80.69Z" style="fill:#ebebeb;opacity:0.5"></path><path d="M110.53,87.8a28.47,28.47,0,0,1-1.9,9.35l-35.9,17a28,28,0,0,1-4.53-1.95C79,105.91,98.86,94.51,110.53,87.8Z" style="fill:#ebebeb;opacity:0.5"></path><rect x="81.49" y="60.1" width="0.56" height="4.36" style="fill:#c7c7c7"></rect><rect x="69.24" y="63.38" width="0.56" height="4.36" transform="translate(-23.47 43.54) rotate(-30)" style="fill:#c7c7c7"></rect><rect x="60.27" y="72.36" width="0.56" height="4.36" transform="translate(-34.28 89.7) rotate(-60)" style="fill:#c7c7c7"></rect><rect x="55.08" y="86.52" width="4.36" height="0.56" style="fill:#c7c7c7"></rect><rect x="58.36" y="98.77" width="4.36" height="0.56" transform="translate(-41.42 43.55) rotate(-30)" style="fill:#c7c7c7"></rect><rect x="67.34" y="107.74" width="4.36" height="0.56" transform="translate(-58.79 114.29) rotate(-60.04)" style="fill:#c7c7c7"></rect><rect x="81.49" y="109.12" width="0.56" height="4.36" style="fill:#c7c7c7"></rect><rect x="93.75" y="105.84" width="0.56" height="4.36" transform="translate(-41.41 61.49) rotate(-30)" style="fill:#c7c7c7"></rect><rect x="102.72" y="96.87" width="0.56" height="4.36" transform="translate(-34.28 138.71) rotate(-60)" style="fill:#c7c7c7"></rect><rect x="104.1" y="86.52" width="4.36" height="0.56" style="fill:#c7c7c7"></rect><rect x="100.82" y="74.26" width="4.36" height="0.56" transform="translate(-23.47 61.51) rotate(-30.01)" style="fill:#c7c7c7"></rect><rect x="91.85" y="65.29" width="4.36" height="0.56" transform="translate(-9.74 114.27) rotate(-60.03)" style="fill:#c7c7c7"></rect><polygon points="82.19 62.08 83.14 88.74 80.41 88.7 81.45 62.07 82.19 62.08" style="fill:#c7c7c7"></polygon><polygon points="98.8 77.5 80.86 88.94 79.56 86.55 98.44 76.84 98.8 77.5" style="fill:#a6a6a6"></polygon><circle cx="81.77" cy="86.79" r="0.93" style="fill:#c7c7c7"></circle></g><g id="freepik--Shadow--inject-11"><ellipse cx="202.75" cy="451.92" rx="153.5" ry="18.45" style="fill:#ebebeb"></ellipse></g><g id="freepik--Floor--inject-11"><polygon points="35.07 422.48 88.8 422.24 142.53 422.15 250 421.98 357.47 422.15 411.2 422.23 464.93 422.48 411.2 422.72 357.47 422.81 250 422.98 142.53 422.81 88.8 422.72 35.07 422.48" style="fill:#263238"></polygon></g><g id="freepik--Plant--inject-11"><path d="M69.59,371.35a215.63,215.63,0,0,1,.31-22.74A290,290,0,0,1,77,302.29c2-8.57,4.43-17,7-25.42.07-.25.48-.18.41.08-7.88,29.68-14.35,60.3-13.9,91.15.12,8.64,1.12,17.12,1.94,25.69,0,.23-.35.33-.41.09A130,130,0,0,1,69.59,371.35Z" style="fill:#FF9900"></path><path d="M84.42,277s11.94,30.31,9.27,37.43S85.5,323,85.5,323s7.31,10.43,2.2,20.21-16.44,9.32-17.2,20.41C70.5,363.64,69.87,317.27,84.42,277Z" style="fill:#FF9900"></path><path d="M71.8,344.49a.26.26,0,0,1,0-.15,277.72,277.72,0,0,1,11.58-61c0-.06.12,0,.1,0-2.36,8.87-4.47,17.78-6.27,26.74a13.34,13.34,0,0,1,5.7-3.18s.06.05,0,.07A15,15,0,0,0,77.06,311q-.53,2.63-1,5.27c2.67-3,6.37-4.46,10.07-5.87a0,0,0,1,1,0,.08c-3.85,1.57-7.69,3.6-10.31,6.92q-1.36,7.54-2.39,15.14a14.36,14.36,0,0,1,7.12-4.08c.08,0,.12.1,0,.12a15,15,0,0,0-7.22,4.63s0,0,0,0c-.24,1.78-.47,3.57-.68,5.35a18.5,18.5,0,0,1,5-3s.08.06,0,.08a17.08,17.08,0,0,0-5,3.31s0,0-.06,0c-.2,1.7-.4,3.4-.57,5.1a24.16,24.16,0,0,1,10.12-7.23.07.07,0,0,1,0,.12,26.22,26.22,0,0,0-10,7.68.24.24,0,0,1-.25.08c-.26,2.6-.49,5.22-.69,7.83,0,0-.06,0,0,0Q71.48,348.51,71.8,344.49Z" style="fill:#263238"></path><path d="M81.39,303.94a14.88,14.88,0,0,1,7.18-2.23c.06,0,.06.08,0,.09a28.44,28.44,0,0,0-7.09,2.31C81.38,304.16,81.3,304,81.39,303.94Z" style="fill:#263238"></path><path d="M79.94,336a14.94,14.94,0,0,1,5.39-1.84c.06,0,.07.09,0,.1A19.77,19.77,0,0,0,80,336.16C79.94,336.19,79.87,336.07,79.94,336Z" style="fill:#263238"></path><path d="M38.21,314.87A81.08,81.08,0,0,1,52,327a49.81,49.81,0,0,1,9.7,16.44,123.16,123.16,0,0,1,7.22,39.31,95.94,95.94,0,0,1-2.13,22.1.21.21,0,0,1-.42-.07,124,124,0,0,0-.21-38.65c-2.05-12.53-5.27-26.17-13.24-36.36-4.34-5.55-9.75-9.91-15.1-14.42C37.56,315.06,37.92,314.67,38.21,314.87Z" style="fill:#FF9900"></path><path d="M67.18,373.67a74.68,74.68,0,0,0-10.07-12.88c-6-6-11-10.21-11.78-14.16s6-6.86,6-6.86-8.27,1.49-10.53-2-3.35-23.56-3.35-23.56,15,10.73,22,25.78S67.18,373.67,67.18,373.67Z" style="fill:#FF9900"></path><path d="M42.63,319.38c6.33,6.21,12.7,12.84,16.42,21A78.54,78.54,0,0,1,62.37,349h0l.57,1.79,0,.09a171.53,171.53,0,0,1,4.27,18.56s-.06.07-.06,0c-.65-3.13-1.37-6.3-2.17-9.45l-.08,0A13.19,13.19,0,0,0,61,359c-.09,0-.08-.17,0-.16a14.82,14.82,0,0,1,3.9.71c-.73-2.84-1.52-5.68-2.41-8.48a42.51,42.51,0,0,0-8.92-1.17,0,0,0,1,1,0,0,33.94,33.94,0,0,1,8.77.74l-.48-1.43a44.25,44.25,0,0,0-5.93-1,0,0,0,1,1,0-.06,29.11,29.11,0,0,1,5.81.7c-.82-2.42-1.7-4.8-2.68-7.13a43.4,43.4,0,0,0-2.84-5.51,35.78,35.78,0,0,0-4.82-.86s0-.08,0-.08a12.92,12.92,0,0,1,4.5.44c-.79-1.27-1.62-2.52-2.51-3.74h0c-3.38-.74-6.79-1.44-10.24-.79-.06,0-.08-.09,0-.1,3.28-.87,6.54-.37,9.81.28-.36-.48-.73-.94-1.09-1.41a22.4,22.4,0,0,0-6.3-1c-.05,0-.06-.06,0-.07a16.36,16.36,0,0,1,5.87.52c-2.78-3.46-5.86-6.71-8.91-9.93C42.37,319.32,42.48,319.23,42.63,319.38Z" style="fill:#263238"></path><path d="M42.8,333.07a14.25,14.25,0,0,1,3-.1c.12,0,.11.21,0,.21-1,0-2,0-3,0A.06.06,0,1,1,42.8,333.07Z" style="fill:#263238"></path><path d="M53.62,352.56a13.7,13.7,0,0,1,4.64.93s0,.08,0,.07c-1.53-.36-3.07-.51-4.62-.77A.12.12,0,0,1,53.62,352.56Z" style="fill:#263238"></path><path d="M56.87,345.83a9.93,9.93,0,0,1,2,.18.06.06,0,0,1,0,.12,10,10,0,0,1-2-.1A.1.1,0,0,1,56.87,345.83Z" style="fill:#263238"></path><path d="M111.26,336.2a68.12,68.12,0,0,0-14,6.58,41.57,41.57,0,0,0-11.64,11.06A103.52,103.52,0,0,0,70.71,384a81,81,0,0,0-3.39,18.38.18.18,0,0,0,.36,0,104.53,104.53,0,0,1,9.1-31.22c4.56-9.67,10.32-20,19.13-26.36,4.79-3.49,10.18-5.77,15.55-8.19C111.74,336.5,111.54,336.1,111.26,336.2Z" style="fill:#FF9900"></path><path d="M74.22,377.08A62.72,62.72,0,0,1,85.35,369c6.21-3.45,11.26-5.72,12.81-8.74s-3.26-6.93-3.26-6.93,6.34,3.11,9,.82S112,335.85,112,335.85s-14.65,5.21-23.8,15.77S74.22,377.08,74.22,377.08Z" style="fill:#FF9900"></path><path d="M75,373.78c7.33-13.75,17.11-26.2,30.5-34.41h0a67.09,67.09,0,0,0-9.8,7.67,15.52,15.52,0,0,1,7.87,1.67,0,0,0,1,1,0,.08,21.55,21.55,0,0,0-8.1-1.37.19.19,0,0,1-.09,0c-.48.45-1,.9-1.41,1.37a24.91,24.91,0,0,1,4.21.56s0,.06,0,.05a22,22,0,0,0-4.44-.36,90.48,90.48,0,0,0-6.91,7.84,7,7,0,0,1,2.94.22.06.06,0,0,1,0,.11,15.71,15.71,0,0,0-3.14-.05c-.4.52-.81,1-1.2,1.54a28.66,28.66,0,0,1,8.89.86s0,.08,0,.07a35.87,35.87,0,0,0-9.13-.59c-.38.5-.73,1-1.1,1.51a19.28,19.28,0,0,1,5.29.6.06.06,0,0,1,0,.11,20.14,20.14,0,0,0-5.48-.43c-1.57,2.17-3.08,4.39-4.53,6.64a4.93,4.93,0,0,1,2.32.14s0,.07,0,.06a10.13,10.13,0,0,0-2.52.12q-2,3-3.77,6.15C75.17,374.09,74.89,374,75,373.78Z" style="fill:#263238"></path><path d="M86.38,362.37a11.4,11.4,0,0,1,4.26.52,0,0,0,0,1,0,.07,33.48,33.48,0,0,0-4.24-.44A.08.08,0,0,1,86.38,362.37Z" style="fill:#263238"></path><path d="M99.16,345.61a7.16,7.16,0,0,1,2,.12.06.06,0,1,1,0,.11c-.64-.07-1.28,0-1.93-.06C99.07,345.77,99.05,345.62,99.16,345.61Z" style="fill:#263238"></path><polygon points="55.33 422.56 88.39 422.56 83.68 388.02 82.47 379.16 61.24 379.16 60.04 388.02 55.33 422.56" style="fill:#455a64"></polygon><polygon points="60.04 388.02 83.68 388.02 82.47 379.16 61.24 379.16 60.04 388.02" style="fill:#263238"></polygon><rect x="58.21" y="376.09" width="27.3" height="7.5" transform="translate(143.72 759.68) rotate(180)" style="fill:#455a64"></rect></g><g id="freepik--Character--inject-11"><path d="M261.6,459c-2.16.69-63.68-.1-66-1.62-.89-.57-1.29-9.54-1.47-20.39,0-.12,0-.23,0-.34,0-2.24-.07-4.54-.07-6.88,0-.32,0-.64,0-1l3-31.92,41.16.41-4.06,31.62-.05,1.25-.25,6.55,0,.67s23.41,10.84,25.79,12.78S263.76,458.31,261.6,459Z" style="fill: rgb(173, 99, 89);"></path><path d="M261.6,459c-2.16.69-63.68-.1-66-1.62-.89-.57-1.29-9.54-1.47-20.39,0-.12,0-.23,0-.34,0-2.24-.07-4.54-.07-6.88,0-.32,0-.64,0-1l40.08.11-.05,1.25-.25,6.55,0,.67s23.41,10.84,25.79,12.78S263.76,458.31,261.6,459Z" style="fill:#ebebeb"></path><path d="M261.61,459c-1.11.36-17.83.32-34.17,0-3.28-.06-6.55-.14-9.67-.22-11.65-.32-21.28-.8-22.17-1.39s-1.29-9.28-1.47-19.93c0-.15,0-.3,0-.45s0-.24,0-.35h0l39.65.07,0,.68s23.42,10.83,25.79,12.77S263.76,458.31,261.61,459Z" style="fill:#FF9900"></path><path d="M260.94,456.6c-10.37-.39-52.23-1-62.51-.58-.08,0-.08.06,0,.07,10.27.61,52.13.86,62.5.68C261.15,456.77,261.15,456.61,260.94,456.6Z" style="fill:#263238"></path><path d="M238.23,436.89c-4.07-.82-9.07-.25-12.23,2.61-.12.11,0,.29.17.25a57.38,57.38,0,0,1,12-2.35A.26.26,0,0,0,238.23,436.89Z" style="fill:#263238"></path><path d="M241.15,438.7c-4.07-.81-9.07-.25-12.22,2.62-.13.11,0,.28.17.24a57.15,57.15,0,0,1,12-2.34A.26.26,0,0,0,241.15,438.7Z" style="fill:#263238"></path><path d="M244.08,440.52c-4.08-.82-9.07-.26-12.23,2.61-.12.11,0,.28.17.24a57.79,57.79,0,0,1,12-2.34A.26.26,0,0,0,244.08,440.52Z" style="fill:#263238"></path><path d="M227.44,459c-3.28-.06-6.55-.14-9.67-.22-11.65-.32-21.28-.8-22.17-1.39s-1.29-9.28-1.47-19.93c0-.15,0-.3,0-.45s0-.24,0-.35h0C199.59,440.45,218.73,453.19,227.44,459Z" style="fill:#263238"></path><path d="M236.51,436.86H192.2s8.92-103.5,8.58-105.31c-.45-2.31-3.06-12.79-6.54-26.47-1.1-4.29-2.27-8.88-3.5-13.64-3.3-12.88-6.94-26.95-10.11-39.19-4.77-18.35-8.49-32.6-8.49-32.6H209.7s4.38,13.88,9.89,31.93c9,29.34,21,69.71,22.19,79.53C243.7,347,236.51,436.86,236.51,436.86Z" style="fill:#263238"></path><path d="M234.55,429.29c-6.77-.14-4.82-.19-11.59-.26-3.31,0-25.08-.22-28.17.29-.07,0-.07.13,0,.14,3.09.51,24.86.33,28.17.29,6.77-.06,4.82-.12,11.59-.26A.1.1,0,0,0,234.55,429.29Z" style="fill:#37474f"></path><path d="M209.11,325.23c-1.45-6.41-3.62-12.69-5.51-19Q197.84,287.09,192,268q-2.91-9.57-5.85-19.14-1.49-4.81-3-9.65c-1-3.14-2.11-6.26-3-9.43-.36-1.3-.56-.59-.1,1.05.94,3.31,1.86,6.62,2.82,9.91q2.86,9.8,5.76,19.58,5.78,19.47,11.63,38.92,2.93,9.75,5.86,19.5a78.47,78.47,0,0,1,2.4,9.43,43.69,43.69,0,0,1,.39,10.09c-.42,6.78-1.21,13.55-1.84,20.31s-1.25,13.56-1.88,20.34q-1.87,20.24-3.71,40.47c-.15,1.71-.3,3.42-.43,5.13-.05.57.82.53.88,0,1.46-13.34,2.58-26.72,3.83-40.08s2.49-26.59,3.73-39.88c.32-3.34.67-6.68.67-10A40.82,40.82,0,0,0,209.11,325.23Z" style="fill:#37474f"></path><path d="M205.44,219.65c-2.61,20.17-7.58,58-11.2,85.43-8.48-33.25-22.1-85.43-22.1-85.43Z" style="fill:#37474f"></path><path d="M214.66,459.59c-2.16.7-63.69.13-66-1.38-.9-.56-1.34-9.53-1.56-20.38v-.34c-.05-2.24-.09-4.54-.1-6.88,0-.32,0-.64,0-1-.15-15.67,1-31.92,1-31.92l40.22.26-1.12,31.62,0,1.26-.23,6.54,0,.68s23.45,10.75,25.84,12.68S216.82,458.89,214.66,459.59Z" style="fill: rgb(173, 99, 89);"></path><path d="M214.66,459.59c-2.16.7-63.69.13-66-1.38-.9-.56-1.34-9.53-1.56-20.38v-.34c-.05-2.24-.09-4.54-.1-6.88,0-.32,0-.64,0-1l40.08,0,0,1.26-.23,6.54,0,.68s23.45,10.75,25.84,12.68S216.82,458.89,214.66,459.59Z" style="fill:#ebebeb"></path><path d="M214.66,459.59c-2.16.7-63.69.13-66-1.38-.9-.56-1.34-9.53-1.56-20.38v-.34l39.7-.08,0,.68s23.45,10.75,25.84,12.68S216.82,458.89,214.66,459.59Z" style="fill:#FF9900"></path><path d="M214,457.2c-10.37-.35-52.23-.79-62.51-.35-.08,0-.08.06,0,.06,10.27.58,52.13.67,62.5.46C214.2,457.36,214.2,457.2,214,457.2Z" style="fill:#263238"></path><path d="M191.21,437.57c-4.08-.8-9.07-.22-12.22,2.66-.12.11,0,.28.17.24a57.88,57.88,0,0,1,12-2.39A.26.26,0,0,0,191.21,437.57Z" style="fill:#263238"></path><path d="M194.14,439.37c-4.08-.8-9.07-.22-12.22,2.66-.12.11,0,.28.17.24a57.22,57.22,0,0,1,12-2.38A.26.26,0,0,0,194.14,439.37Z" style="fill:#263238"></path><path d="M197.07,441.17c-4.08-.8-9.07-.22-12.22,2.66-.12.11,0,.28.17.24a57.22,57.22,0,0,1,12-2.38A.26.26,0,0,0,197.07,441.17Z" style="fill:#263238"></path><path d="M208.48,219.65s-.86,18-5,32.2c-.33,1.18-.69,2.34-1.08,3.45a66.58,66.58,0,0,0-10.82,5.56s-.43,14.46-.87,30.58c-.48,18-1,38.13-.87,42.39.37,15.95-2,103.67-2,103.67l-44.3.18s8-98,8-103.8c-.08-9.4,2.15-50.91,3.87-81.19,1.06-18.66,1.92-33,1.92-33Z" style="fill:#263238"></path><path d="M186.35,429.62c-6.76-.11-4.82-.17-11.59-.21-3.31,0-25.08-.11-28.17.41a.07.07,0,0,0,0,.14c3.1.5,24.86.22,28.17.17,6.77-.09,4.83-.14,11.6-.31C186.48,429.82,186.48,429.63,186.35,429.62Z" style="fill:#37474f"></path><path d="M161,226.07c-.81,24.72-1.68,49.44-2.78,74.15s-2.6,49.57-4.68,74.3c-1.16,13.81-2.25,33.25-3.74,47,0,.1.13.13.14,0,3.23-24.52,5-54.84,6.61-79.51s2.66-49.39,3.51-74.09c.47-14,.83-28,1.25-41.93C161.35,225.86,161,225.88,161,226.07Z" style="fill:#37474f"></path><path d="M204.27,254.23a82,82,0,0,0-12.66,6.63.15.15,0,0,0,.13.26c4.28-2.08,8.64-4.08,12.79-6.38A.29.29,0,0,0,204.27,254.23Z" style="fill:#37474f"></path><path d="M204.52,239c-.29,1.58-.67,3.14-1,4.7s-.56,3-.94,4.42a7.52,7.52,0,0,1-2.06,3.7c-.58.54-1.21,1-1.83,1.5-.33.27-.69.52-1,.79,0-.21.08-.42.12-.64l.3-1.79c.23-1.32.44-2.65.64-4,.4-2.61.77-5.25,1.32-7.84a.09.09,0,0,0-.17,0c-.65,2.56-1.37,5.1-1.93,7.68-.28,1.27-1.27,7.53-1.32,8s-.08.92-.1,1.38a6,6,0,0,0,0,1.4.11.11,0,0,0,.21,0h0a5.32,5.32,0,0,0,.4-1.36c.11-.45.21-.9.29-1.36,0-.16.06-.33.08-.5.62-.37,1.19-.87,1.77-1.28s1.25-.89,1.84-1.39a7.07,7.07,0,0,0,2.25-3.51,25.29,25.29,0,0,0,.73-4.5c.2-1.78.35-3.56.6-5.34C204.7,238.92,204.54,238.87,204.52,239Z" style="fill:#37474f"></path><path d="M184.63,173.29c6.12,10.19,32.23,32.2,41.43,32.72,6.65.38,29.74-17.88,35.94-24.29,6-6.2-15.72-23-19.48-19.64-5.32,4.79-16.93,18.59-19.5,19-1.81.31-12.91-4.89-30.14-14.72C183.35,161,181,167.21,184.63,173.29Z" style="fill: rgb(173, 99, 89);"></path><path d="M250.29,152.4c3.7-2.08,7.78-4.77,12.18-5.46s9.06,4.47,9.35,6.12.44,12.29-3.94,13.06-3.13-7.64-3.46-8.52-.69-2-1.5-1.79-14.09,9.64-14.09,9.64Z" style="fill: rgb(173, 99, 89);"></path><path d="M250.67,153c.25,0,11.19-6.74,15.59-7.42s9.06,4.46,9.35,6.12.45,12.29-3.94,13.06-3.13-7.64-3.45-8.52-.7-2-1.51-1.79-14.09,9.64-14.09,9.64Z" style="fill: rgb(173, 99, 89);"></path><path d="M270.08,164.42A5.33,5.33,0,0,1,268.9,162a9,9,0,0,1-.33-2.83,16.15,16.15,0,0,0,.11-2.5,5,5,0,0,0-1-2.22c-.45-.55-1.05-.23-1.57.06a21.87,21.87,0,0,0-2.2,1.5c-.76.56-1.52,1.14-2.27,1.72a22.88,22.88,0,0,0-2.3,1.84c-.06.05,0,.15.07.11a21.71,21.71,0,0,0,2.05-1.39c.77-.53,1.53-1.07,2.31-1.59s1.42-1,2.15-1.48c.26-.17.77-.57,1.1-.55s.66.81.78,1.06a4.19,4.19,0,0,1,.26,2.4,12.84,12.84,0,0,0,0,2.48,6.5,6.5,0,0,0,.58,2.25,9.07,9.07,0,0,0,1.38,1.71C270,164.61,270.16,164.49,270.08,164.42Z" style="fill:#263238"></path><path d="M238.78,166.91S249,153.7,251.14,151.06c4.3-5.3,24.15-17.78,27.07-18.62s5.07,5.08-8.33,14c-7.06,4.68-7.65,9.3-7.08,11.7s3.68,6.52,7.74,5.7,5.67-7.25,9.31-8.57,2.36,6,.41,10.42a25.42,25.42,0,0,1-9.48,10.5c-3.3,1.94-13.4,8.57-13.4,8.57Z" style="fill: rgb(173, 99, 89);"></path><path d="M275.11,160.05c-1.33,1.46-2.8,3.31-4.81,3.74s-3.68-.68-4.95-2.21a7.87,7.87,0,0,1-2.06-5.46,9.62,9.62,0,0,1,2-5.07,23.16,23.16,0,0,1,4.88-4.65c.08-.06,0-.17-.1-.12-1.73,1.17-7.16,4.59-7.42,9.95a8,8,0,0,0,2.14,5.56c1.19,1.46,2.78,2.8,4.79,2.61,2.45-.22,4.18-2.55,5.66-4.32C275.3,160,275.18,160,275.11,160.05Z" style="fill:#263238"></path><path d="M242.08,162.46l16.82,30.35s-25.16,14.83-33.28,14-31.81-20-41.07-32.6c-5.64-7.65-1.68-14.13,9.32-8.39,11.29,5.89,27.14,14,28.27,14.19S242.08,162.46,242.08,162.46Z" style="fill:#455a64"></path><path d="M225.75,186.53a7.56,7.56,0,0,1,.64,2.07,7.26,7.26,0,0,1-1.15-1.84,7.57,7.57,0,0,1-.65-2.07A7.59,7.59,0,0,1,225.75,186.53Zm21.42-8.63a7.82,7.82,0,0,0,.65,2.07,7.26,7.26,0,0,0,1.15,1.84,8.29,8.29,0,0,0-1.8-3.91ZM201.07,173a7.67,7.67,0,0,0,.64,2.07,8,8,0,0,0,1.15,1.83,7.33,7.33,0,0,0-.64-2.07A7.69,7.69,0,0,0,201.07,173Zm25.29,28.06a7.68,7.68,0,0,0,2.07-.65,7.39,7.39,0,0,0,1.83-1.15,8,8,0,0,0-2.07.64A7.73,7.73,0,0,0,226.36,201.09Zm24.81-8.67a8.4,8.4,0,0,0,3.91-1.79,7.56,7.56,0,0,0-2.07.64A7.87,7.87,0,0,0,251.17,192.42ZM239.92,168.6A7.68,7.68,0,0,0,242,168a7.26,7.26,0,0,0,1.84-1.15,7.45,7.45,0,0,0-2.07.64A7.59,7.59,0,0,0,239.92,168.6Zm-27.85,13.21a7.85,7.85,0,0,0-1,1.92,7.37,7.37,0,0,0-.48,2.11,7.68,7.68,0,0,0,1-1.92A7.37,7.37,0,0,0,212.07,181.81Zm26.26,4.85a8.49,8.49,0,0,0-1.5,4,7,7,0,0,0,1-1.91A7.89,7.89,0,0,0,238.33,186.66ZM191.8,174.27a7.52,7.52,0,0,0-1,1.92,7.74,7.74,0,0,0-.49,2.11,7.36,7.36,0,0,0,1-1.92A7.74,7.74,0,0,0,191.8,174.27Zm8.54,14.25a7.52,7.52,0,0,0-1.92-1,7.89,7.89,0,0,0-2.12-.49,7.52,7.52,0,0,0,1.92,1A7.89,7.89,0,0,0,200.34,188.52Zm35.07-10.84a7.85,7.85,0,0,0-1.92-1,7.37,7.37,0,0,0-2.11-.48,7.68,7.68,0,0,0,1.92,1A7.37,7.37,0,0,0,235.41,177.68Zm-17.08,17a7.79,7.79,0,0,0-1.91-1,7.89,7.89,0,0,0-2.12-.49,7.22,7.22,0,0,0,1.92,1A7.54,7.54,0,0,0,218.33,194.66ZM244.77,199a7.79,7.79,0,0,0-1.91-1,7.52,7.52,0,0,0-2.12-.48,7.85,7.85,0,0,0,1.92,1A7.53,7.53,0,0,0,244.77,199Z" style="fill:#fff"></path><path d="M243.77,182.07c-1.1-2.3-5.44-11.55-6.34-13.93,0,0,0-.07.07,0,1.3,2.1,5.85,11.1,7,13.41a139.7,139.7,0,0,1,6.21,14c0,.08-.09.17-.15.08C248,191.24,245.94,186.62,243.77,182.07Z" style="fill:#263238"></path><path d="M184.55,174.23c7.51,10.19,24.48,24.75,35,30.33l-32.17-40.88h0C181.55,163.2,180.23,168.37,184.55,174.23Z" style="fill:#263238"></path><path d="M152.69,246.35c.17.16,65.08-4.29,65.62-5,.76-1-19.78-67-24.93-76.66-2.19-4.13-12.69-4.72-16.84-.82-10.39,9.77-17.62,41.36-19.14,50.83C154.88,230.32,152.11,245.78,152.69,246.35Z" style="fill:#455a64"></path><path d="M184.8,184.57a7.63,7.63,0,0,1,.64,2.08,7.26,7.26,0,0,1-1.15-1.84,7.67,7.67,0,0,1-.64-2.07A8,8,0,0,1,184.8,184.57Zm6.28,25a8.4,8.4,0,0,0,1.79,3.91,8.4,8.4,0,0,0-1.79-3.91Zm7.36,29.2a7.57,7.57,0,0,0,.65,2.07,7.26,7.26,0,0,0,1.15,1.84,8.29,8.29,0,0,0-1.8-3.91Zm-30-35.61a7.67,7.67,0,0,0,.64,2.07,7.55,7.55,0,0,0,1.15,1.84,8.28,8.28,0,0,0-1.79-3.91ZM159,222.21a7.68,7.68,0,0,0,.65,2.07,7.39,7.39,0,0,0,1.15,1.83,8.2,8.2,0,0,0-1.8-3.9Zm25.57,10.59a7.45,7.45,0,0,0,.64,2.07,7.59,7.59,0,0,0,1.16,1.84,7.68,7.68,0,0,0-.65-2.07A7.55,7.55,0,0,0,184.54,232.8Zm19.25-34.56a8.31,8.31,0,0,0,1.79,3.9,8.31,8.31,0,0,0-1.79-3.9Zm-27.9-3.43a7.67,7.67,0,0,0,2.07-.64A7.87,7.87,0,0,0,179.8,193a7.29,7.29,0,0,0-2.08.64A7.69,7.69,0,0,0,175.89,194.81ZM170,218.54a7.63,7.63,0,0,0,2.08-.64,8,8,0,0,0,1.83-1.15,7.33,7.33,0,0,0-2.07.64A7.75,7.75,0,0,0,170,218.54ZM173.12,245l1.15-.07.44-.19a8.22,8.22,0,0,0,1.84-1.15,7.23,7.23,0,0,0-2.07.64A8.32,8.32,0,0,0,173.12,245Zm24.27-22.38a7.68,7.68,0,0,0,2.07-.65,7.44,7.44,0,0,0,1.84-1.15,7.63,7.63,0,0,0-2.08.64A7.73,7.73,0,0,0,197.39,222.65Zm-21.5-48.35a7.67,7.67,0,0,0,2.07-.64,7.55,7.55,0,0,0,1.84-1.15,7.45,7.45,0,0,0-2.07.64A7.55,7.55,0,0,0,175.89,174.3Zm-5.82,3.45a7.85,7.85,0,0,0-1,1.92,7.37,7.37,0,0,0-.48,2.11,7.68,7.68,0,0,0,1-1.92A7.37,7.37,0,0,0,170.07,177.75Zm-8.7,30.31a7.69,7.69,0,0,0-1,1.92,7.53,7.53,0,0,0-.49,2.12,7.52,7.52,0,0,0,1-1.92A7.89,7.89,0,0,0,161.37,208.06Zm.74,27.3a8,8,0,0,0-1,1.92,7.52,7.52,0,0,0-.48,2.12,7.85,7.85,0,0,0,1-1.92A7.52,7.52,0,0,0,162.11,235.36ZM193,195.25a7.52,7.52,0,0,0-1,1.92,7.39,7.39,0,0,0-.49,2.11,7.36,7.36,0,0,0,1-1.92A7.74,7.74,0,0,0,193,195.25Zm-9.47,24.52a7.85,7.85,0,0,0-1,1.92,7.52,7.52,0,0,0-.48,2.12,7.85,7.85,0,0,0,1-1.92A7.52,7.52,0,0,0,183.53,219.77Zm25.7,10a7.85,7.85,0,0,0-1,1.92,7.52,7.52,0,0,0-.48,2.12,7.85,7.85,0,0,0,1-1.92A7.52,7.52,0,0,0,209.23,229.77Zm-17.43-55.5a7.52,7.52,0,0,0-1,1.92,7.74,7.74,0,0,0-.49,2.11,7.36,7.36,0,0,0,1-1.92A7.74,7.74,0,0,0,191.8,174.27Zm8.54,14.25a7.52,7.52,0,0,0-1.92-1,7.89,7.89,0,0,0-2.12-.49,7.52,7.52,0,0,0,1.92,1A7.89,7.89,0,0,0,200.34,188.52Zm-26.18,42.75a7.85,7.85,0,0,0-1.92-1,7.74,7.74,0,0,0-2.11-.49,7.07,7.07,0,0,0,1.92,1A7.39,7.39,0,0,0,174.16,231.27Zm34.47-18.33a8.47,8.47,0,0,0-4-1.5,7.22,7.22,0,0,0,1.92,1A7.53,7.53,0,0,0,208.63,212.94Zm-45.44-22.1a8.41,8.41,0,0,0,1.62.8,7.37,7.37,0,0,0,2.11.48,7.68,7.68,0,0,0-1.92-1,8.47,8.47,0,0,0-1.75-.44A1.15,1.15,0,0,0,163.19,190.84Zm31.13,40.43a7.85,7.85,0,0,0-1.92-1,7.74,7.74,0,0,0-2.11-.49,7.07,7.07,0,0,0,1.92,1A7.39,7.39,0,0,0,194.32,231.27Zm-9.78-26.62a7.68,7.68,0,0,0-1.92-1,7.37,7.37,0,0,0-2.11-.48,7.85,7.85,0,0,0,1.92,1A7.37,7.37,0,0,0,184.54,204.65Z" style="fill:#fff"></path><path d="M193.78,165.76s-.05,0-.05,0c.38,2.93,1.08,9.74-3.57,9.64a9.87,9.87,0,0,1-5.14-2.12,26.37,26.37,0,0,1-4.19-3.71,38.59,38.59,0,0,1-4-4.85c-.05-.07-.16,0-.11.09,1.22,1.72,2.26,3.53,3.65,5.14a22.69,22.69,0,0,0,4.53,4.11,9.86,9.86,0,0,0,5.46,2.05,3.73,3.73,0,0,0,3.59-3.07A16.47,16.47,0,0,0,193.78,165.76Z" style="fill:#263238"></path><polygon points="201.58 238.69 235.21 246.58 252.73 200.47 219.1 192.58 201.58 238.69" style="fill:#a6a6a6"></polygon><polygon points="203.23 239.08 236.86 246.97 254.39 200.86 220.75 192.97 203.23 239.08" style="fill:#c7c7c7"></polygon><path d="M233.72,218.92a3.75,3.75,0,0,1-4.33,2.44,3,3,0,0,1-2.22-4A3.75,3.75,0,0,1,231.5,215,3,3,0,0,1,233.72,218.92Z" style="fill:#fff"></path><path d="M170.26,170.39c-9.73,13.54-30.65,44.47-24.47,51.61,10.14,11.75,34.92,22,42.68,24.36,3.35,1,15.34-23.34,12.18-25.34-3.79-2.4-28.06-11.94-28.18-13.11s4.42-17.95,5.91-31.09C180.23,160.51,174.32,164.74,170.26,170.39Z" style="fill: rgb(173, 99, 89);"></path><path d="M188.45,219.31s10.21-3,17-4.63c3.77-.92,10.39-1.91,13.47-1.32,4.61.89,23.32,7.56,21.8,12.13-1.37,4.14-16.72-3.63-16.72-3.63s16.18,6.47,13.61,11.15-18.75-6.41-18.75-6.41,16.48,7,13.06,11.43c-2.58,3.33-17.79-5.89-17.79-5.89s14.12,6.14,11.61,9.67c-2.77,3.91-17.35-3.71-17.35-3.71-7.88,7.92-14.72,9-19.9,8.26C187.27,246.19,188.45,219.31,188.45,219.31Z" style="fill: rgb(173, 99, 89);"></path><path d="M219.28,219.59c12.28,3.86,17.12,9.51,17,9.39-3.76-2.93-10.37-6.12-12.23-7s-2.92-1.48-4.77-2.34C219.2,219.64,219.23,219.58,219.28,219.59Z" style="fill:#263238"></path><path d="M215.3,225.92a43.72,43.72,0,0,1,14,6.57c.16.12.07.16-.11.07-2.34-1.16-11.59-5.54-14-6.58C215.23,226,215.26,225.91,215.3,225.92Z" style="fill:#263238"></path><path d="M211.5,231.14a32.48,32.48,0,0,1,10.73,5.4c.16.12,0,.17-.16.08-3.53-1.87-6.29-3.35-10.62-5.35C211.38,231.24,211.42,231.11,211.5,231.14Z" style="fill:#263238"></path><path d="M193.19,217.25l-13.67,29.14s-32.57-17.55-35-25.8,19.69-44.53,26.42-51.93,8.91-4.37,8.72,4.08S172.81,207.5,173,208,193.19,217.25,193.19,217.25Z" style="fill:#455a64"></path><path d="M169.58,205a7.63,7.63,0,0,1,.64,2.08,7.55,7.55,0,0,1-1.15-1.84,7.67,7.67,0,0,1-.64-2.07A7.69,7.69,0,0,1,169.58,205Zm-15.39-6.75a8.31,8.31,0,0,0,1.79,3.9,7.67,7.67,0,0,0-.64-2.07A8,8,0,0,0,154.19,198.24Zm4.78,24a7.68,7.68,0,0,0,.65,2.07,7.39,7.39,0,0,0,1.15,1.83,8.2,8.2,0,0,0-1.8-3.9Zm25.57,10.59a7.55,7.55,0,0,0,.52,1.79l.29-.62A6.45,6.45,0,0,0,184.54,232.8ZM170,218.54a7.63,7.63,0,0,0,2.08-.64,8,8,0,0,0,1.83-1.15,7.33,7.33,0,0,0-2.07.64A7.75,7.75,0,0,0,170,218.54Zm5.2,25.43c.17.1.33.2.49.28a5.89,5.89,0,0,0,.87-.64A6,6,0,0,0,175.19,244Zm.7-69.67a7.67,7.67,0,0,0,2.07-.64,7.55,7.55,0,0,0,1.84-1.15,7.45,7.45,0,0,0-2.07.64A7.55,7.55,0,0,0,175.89,174.3Zm-5.82,3.45a7.85,7.85,0,0,0-1,1.92,7.37,7.37,0,0,0-.48,2.11,7.68,7.68,0,0,0,1-1.92A7.37,7.37,0,0,0,170.07,177.75Zm-8.7,30.31a7.69,7.69,0,0,0-1,1.92,7.53,7.53,0,0,0-.49,2.12,7.52,7.52,0,0,0,1-1.92A7.89,7.89,0,0,0,161.37,208.06Zm-11,10.78a7.79,7.79,0,0,0-1,1.91,7.52,7.52,0,0,0-.48,2.12,7.85,7.85,0,0,0,1-1.92A7.53,7.53,0,0,0,150.35,218.84Zm11.44,17c.08.06.17.11.24.17a4.86,4.86,0,0,0,.08-.64A4.87,4.87,0,0,0,161.79,235.84Zm21.74-16.07a7.85,7.85,0,0,0-1,1.92,7.52,7.52,0,0,0-.48,2.12,7.85,7.85,0,0,0,1-1.92A7.52,7.52,0,0,0,183.53,219.77Zm-9.37,11.5a7.85,7.85,0,0,0-1.92-1,7.74,7.74,0,0,0-2.11-.49,7.07,7.07,0,0,0,1.92,1A7.39,7.39,0,0,0,174.16,231.27Zm-11-40.43a8.41,8.41,0,0,0,1.62.8,7.37,7.37,0,0,0,2.11.48,7.68,7.68,0,0,0-1.92-1,8.47,8.47,0,0,0-1.75-.44A1.15,1.15,0,0,0,163.19,190.84ZM147,211.54a8.41,8.41,0,0,0,1.62.8,7.73,7.73,0,0,0,2.11.48,7.68,7.68,0,0,0-1.92-1,8.47,8.47,0,0,0-1.75-.44Z" style="fill:#fff"></path><path d="M175.39,195.56c.44-2,.88-3.95,1.29-5.93.22-1,.43-2.06.66-3.08.11-.47.21-1,.32-1.42.05-.23.13-.47.17-.7.14-.87,0-.1.24-.94,0-.06.1,0,.09,0,0,.55.06.33,0,.74s-.11.62-.16.94c-.07.48-.15.95-.22,1.43-.16,1-.33,1.95-.52,2.93,0,.13-.05.25-.08.38a.42.42,0,0,0,0-.1c.36-1.06.73-2.11,1.11-3.16,0,0,.08,0,.07,0-.25,1.09-.54,2.16-.89,3.22-.2.62-.44,1.22-.69,1.82-.25,1.3-.5,2.6-.78,3.89-.84,4-1.72,8.06-2.88,12,1.7.78,3.44,1.48,5.14,2.27s3.41,1.59,5.11,2.4,3.4,1.61,5.08,2.44c.81.4,1.6.82,2.4,1.23s1.69,1,2.57,1.4c.09,0,0,.17-.08.13-.91-.42-1.88-.72-2.81-1.12s-1.63-.7-2.43-1.06c-1.72-.77-3.43-1.57-5.13-2.37s-3.41-1.59-5.11-2.4-3.34-1.72-5-2.53a.18.18,0,0,1-.1-.13.22.22,0,0,1-.1-.23C173.47,203.59,174.49,199.59,175.39,195.56Z" style="fill:#263238"></path><path d="M179.6,228.75c1-2.11,5.15-10.53,6.33-12.54,0,0,.08,0,.07,0-.76,2.14-4.59,10.56-5.6,12.68A129.1,129.1,0,0,1,174,241.4c0,.07-.18,0-.14-.05C175.45,237,177.6,232.91,179.6,228.75Z" style="fill:#263238"></path><path d="M156.08,232c.75.43,1.45,1,2.16,1.45l2.21,1.52c1.44,1,2.89,2.05,4.42,2.91.09,0,0,.18-.08.13-1.55-.9-3.14-1.72-4.65-2.7a23,23,0,0,1-4.14-3.21C156,232,156,231.94,156.08,232Z" style="fill:#263238"></path><path d="M190.2,172.26c-3.31.56-9.25-5.24-11.19-9.41-.13-.29.49-3.17,1.07-6.7.34-2.15.68-4.55.82-6.76l13.65,4.28a35.36,35.36,0,0,0-1.9,8.4,5.47,5.47,0,0,0,0,.92s0,.09,0,.15C192.86,164.88,193.39,171.72,190.2,172.26Z" style="fill: rgb(173, 99, 89);"></path><path d="M192.68,163s0,.09,0,.14a8.46,8.46,0,0,1-1.42,0c-8-.71-9.26-10.65-9.45-13.44l3.41,1.07,9.32,2.92a35,35,0,0,0-1.89,8.4A5.55,5.55,0,0,0,192.68,163Z" style="fill:#263238"></path><path d="M195.18,126.93s4.94,1.24,6.5,5.84,1.22,9.72.85,10S195.18,126.93,195.18,126.93Z" style="fill:#263238"></path><path d="M178.38,136c-.87,5.08,3.49,18.88,7.37,21.59,5.62,3.93,13.93,3.33,17-3.22,3-6.35-3-24.24-7.23-26.61C189.3,124.25,179.68,128.48,178.38,136Z" style="fill: rgb(173, 99, 89);"></path><path d="M193.45,143.4s-.06.06,0,.1c.32.92.53,2-.21,2.6,0,0,0,.07,0,.05C194.19,145.69,193.9,144.22,193.45,143.4Z" style="fill:#263238"></path><path d="M192.32,142.68c-1.54.36-.72,3.39.7,3.07S193.6,142.39,192.32,142.68Z" style="fill:#263238"></path><path d="M198.74,141.79s.09,0,.1.06c.22,1,.64,2,1.57,2.08,0,0,0,0,0,.06C199.34,144.12,198.8,142.72,198.74,141.79Z" style="fill:#263238"></path><path d="M199.32,140.58c1.48-.52,2.42,2.48,1,3S198.08,141,199.32,140.58Z" style="fill:#263238"></path><path d="M190.74,141.62c.39-.22.71-.48,1.07-.73s.76-.47.94-1a.67.67,0,0,0-.31-.75,1.66,1.66,0,0,0-1.65.27,2.45,2.45,0,0,0-1.08,1.37A.72.72,0,0,0,190.74,141.62Z" style="fill:#263238"></path><path d="M200.09,138.73a11.28,11.28,0,0,1-1.3,0,2.08,2.08,0,0,1-1.32-.24.66.66,0,0,1-.17-.79,1.66,1.66,0,0,1,1.51-.73,2.46,2.46,0,0,1,1.67.51A.71.71,0,0,1,200.09,138.73Z" style="fill:#263238"></path><path d="M194.47,152.11a1.49,1.49,0,0,0,.94.34,2.58,2.58,0,0,0,1-.51s.06,0,0,0a1.32,1.32,0,0,1-1.06.83,1,1,0,0,1-1-.63C194.36,152.13,194.43,152.09,194.47,152.11Z" style="fill:#263238"></path><path d="M194.7,149a3.32,3.32,0,0,0,2.52.86,4.23,4.23,0,0,0,1.17-.26.67.67,0,0,0,.21-.09l.2-.08a.24.24,0,0,0,.13-.26h0l0-.1h0l0-.08c-.17-.73-.54-1.82-.54-1.82.3.06,1.81.31,1.69-.06a49.53,49.53,0,0,0-3.85-9.37.09.09,0,0,0-.16.07c.87,3,2.26,5.83,3.19,8.84a5.76,5.76,0,0,0-1.64-.06c-.09.06.75,2.08.8,2.42v0a4.56,4.56,0,0,1-3.59-.13C194.68,148.88,194.62,149,194.7,149Z" style="fill:#263238"></path><path d="M197.86,149.37a3.86,3.86,0,0,1-1.2,1.59,1.78,1.78,0,0,1-1,.34c-.81,0-1-.68-1-1.31a4.27,4.27,0,0,1,.09-1A5.13,5.13,0,0,0,197.86,149.37Z" style="fill:#263238"></path><path d="M196.66,151a1.78,1.78,0,0,1-1,.34c-.81,0-1-.68-1-1.31A1.83,1.83,0,0,1,196.66,151Z" style="fill:#ff98b9"></path><path d="M181.66,149c1.67-.05,1.87-5.17,1.77-7.08-.09-1.68-1.23-6.73-1.27-7.08s8,2.09,11.46-.31,4.81-6.67,4.32-8.28-6.57-4-10.72-2.88-7.93,8.24-7.93,8.24a19.7,19.7,0,0,0,1-3,4.71,4.71,0,0,0-2.26,3.82s-.27-2.53-.49-2.51-1.58,2.74-.6,4.11c0,0-1.67,2.86-1.13,5.19S179.71,149.05,181.66,149Z" style="fill:#263238"></path><path d="M196.05,132.82a13.61,13.61,0,0,1-3.16,2.5,9,9,0,0,1-4.32.73,13.89,13.89,0,0,1-4.31-.91c-1.22-.46-2.38-1.12-3.63-1.48-.31-.09-.48.38-.25.56A14.46,14.46,0,0,0,189,137a8.28,8.28,0,0,0,7.08-4.12S196.06,132.81,196.05,132.82Z" style="fill:#263238"></path><path d="M182.86,147.11S179,143,177.1,144.47s1.47,7.69,4,8.23a2.5,2.5,0,0,0,3.12-1.81Z" style="fill: rgb(173, 99, 89);"></path><path d="M178.11,146.23a0,0,0,0,0,0,.07,6.29,6.29,0,0,1,3.79,3.43,1.37,1.37,0,0,0-2.09-.07s0,.1.06.08a1.54,1.54,0,0,1,1.75.29,7.46,7.46,0,0,1,1,1.23c.1.14.36,0,.28-.15l0,0C182.6,148.9,180.47,146.11,178.11,146.23Z" style="fill:#263238"></path><path d="M192.75,162.9l-3.38,8.16L179.3,160.57l-2.92,3.29s9.77,16.59,9.84,15.85l3.46-7,4.82,5-.26-12.34Z" style="fill:#fff"></path><path d="M194.72,171.55c-.11-2-.17-4.09-.37-6.12,0-.08-.12-.11-.14,0-.43,2,0,9.74,0,11.61l0,0c-.2-.21-4.47-4.37-4.51-4.31-.75,1.12-3.28,6.23-3.46,6.7-1.54-2.64-7.47-12.22-9.31-14.71a.07.07,0,1,0-.12.07c1.36,2.77,9.2,15.67,9.33,15.64a78.75,78.75,0,0,0,3.61-7.43c.72.91,5,5.6,5,5.29A62.19,62.19,0,0,0,194.72,171.55Z" style="fill:#263238"></path></g><g id="freepik--data-points--inject-11"><circle cx="390.5" cy="136.03" r="11.5" transform="translate(200.11 503.11) rotate(-81.79)" style="fill:#FF9900;opacity:0.5"></circle><circle cx="390.5" cy="136.03" r="7.62" transform="translate(18.19 315.97) rotate(-45)" style="fill:#FF9900"></circle><circle cx="274.28" cy="310.56" r="11.5" transform="translate(-76.08 531.76) rotate(-80.82)" style="fill:#FF9900;opacity:0.5"></circle><circle cx="274.28" cy="310.56" r="7.62" transform="translate(-90.84 506.43) rotate(-76.76)" style="fill:#FF9900"></circle><circle cx="285.37" cy="125.65" r="16.13" transform="translate(115.85 387.35) rotate(-80.83)" style="fill:#FF9900;opacity:0.5"></circle><circle cx="285.37" cy="125.65" r="10.68" transform="translate(114.35 386.37) rotate(-80.5)" style="fill:#FF9900"></circle><circle cx="195.64" cy="360.09" r="16.13" style="fill:#FF9900;opacity:0.5"></circle><circle cx="195.64" cy="360.09" r="10.68" style="fill:#FF9900"></circle><circle cx="128.71" cy="258.99" r="11.5" style="fill:#FF9900;opacity:0.5"></circle><circle cx="128.71" cy="258.99" r="7.62" style="fill:#FF9900"></circle><circle cx="126.36" cy="107" r="11.5" style="fill:#FF9900;opacity:0.5"></circle><circle cx="126.36" cy="107" r="7.62" style="fill:#FF9900"></circle><circle cx="382.87" cy="291.39" r="9.15" style="fill:#FF9900;opacity:0.5"></circle><path d="M388.93,291.39a6.06,6.06,0,1,1-6.06-6.06A6.06,6.06,0,0,1,388.93,291.39Z" style="fill:#FF9900"></path><path d="M101.33,146.4a6.06,6.06,0,1,1-6.06-6.06A6.06,6.06,0,0,1,101.33,146.4Z" style="fill:#FF9900;opacity:0.5"></path><circle cx="95.27" cy="146.4" r="4.01" style="fill:#FF9900"></circle><path d="M381.49,235.84a6.07,6.07,0,1,1-6.07-6.06A6.06,6.06,0,0,1,381.49,235.84Z" style="fill:#FF9900;opacity:0.5"></path><path d="M379.44,235.84a4,4,0,1,1-4-4A4,4,0,0,1,379.44,235.84Z" style="fill:#FF9900"></path><circle cx="301.5" cy="243.92" r="6.06" style="fill:#FF9900;opacity:0.5"></circle><circle cx="301.5" cy="243.92" r="4.01" style="fill:#FF9900"></circle><path d="M125.19,318.82a6.06,6.06,0,1,1-6.06-6.06A6.06,6.06,0,0,1,125.19,318.82Z" style="fill:#FF9900;opacity:0.5"></path><path d="M123.14,318.82a4,4,0,1,1-4-4A4,4,0,0,1,123.14,318.82Z" style="fill:#FF9900"></path><path d="M248.94,81.89a6.06,6.06,0,1,1-6.06-6.07A6.06,6.06,0,0,1,248.94,81.89Z" style="fill:#FF9900;opacity:0.5"></path><path d="M246.9,81.89a4,4,0,1,1-4-4A4,4,0,0,1,246.9,81.89Z" style="fill:#FF9900"></path><path d="M303.55,53.74a6.06,6.06,0,1,1-6.06-6.06A6.06,6.06,0,0,1,303.55,53.74Z" style="fill:#FF9900;opacity:0.5"></path><path d="M301.5,53.74a4,4,0,1,1-4-4A4,4,0,0,1,301.5,53.74Z" style="fill:#FF9900"></path><path d="M352.6,157.4a2.84,2.84,0,1,1-2.84-2.83A2.84,2.84,0,0,1,352.6,157.4Z" style="fill:#FF9900"></path><path d="M159.73,318.82a2.84,2.84,0,1,1-2.84-2.84A2.84,2.84,0,0,1,159.73,318.82Z" style="fill:#FF9900"></path><path d="M156.89,81.89a2.84,2.84,0,1,1-2.83-2.84A2.83,2.83,0,0,1,156.89,81.89Z" style="fill:#FF9900"></path><path d="M119.13,187.4a2.84,2.84,0,1,1-2.84-2.84A2.84,2.84,0,0,1,119.13,187.4Z" style="fill:#FF9900"></path><path d="M421.83,215.3a2.84,2.84,0,1,1-2.84-2.83A2.84,2.84,0,0,1,421.83,215.3Z" style="fill:#FF9900"></path><path d="M184.36,230.05a2.84,2.84,0,1,1-2.83-2.84A2.84,2.84,0,0,1,184.36,230.05Z" style="fill:#FF9900"></path><circle cx="80.68" cy="242.03" r="2.84" style="fill:#FF9900"></circle><path d="M355.44,347.08a2.84,2.84,0,1,1-2.84-2.84A2.84,2.84,0,0,1,355.44,347.08Z" style="fill:#FF9900"></path><path d="M252.78,277.6a2.84,2.84,0,1,1-2.84-2.84A2.84,2.84,0,0,1,252.78,277.6Z" style="fill:#FF9900"></path><path d="M247.07,383.07a2.84,2.84,0,1,1-2.84-2.84A2.84,2.84,0,0,1,247.07,383.07Z" style="fill:#FF9900"></path><path d="M219.62,133.19a2.84,2.84,0,1,1-2.84-2.83A2.84,2.84,0,0,1,219.62,133.19Z" style="fill:#FF9900"></path><path d="M220.52,46.36a2.84,2.84,0,1,1-2.83-2.84A2.83,2.83,0,0,1,220.52,46.36Z" style="fill:#FF9900"></path><path d="M351.2,90.78A2.84,2.84,0,1,1,348.36,88,2.84,2.84,0,0,1,351.2,90.78Z" style="fill:#FF9900"></path><path d="M195.62,360.25l-.07-.08L156.8,318.9,80.55,242.08V242l14.59-95.67,0,0,31.09-39.4L154,81.79l63.75-35.6.07.1L243,81.81l42.41,43.68,63-34.86.07.07L390.62,136l28.51,79.32,0,.05L383,291.5h-.06L274.33,310.68ZM80.81,242,157,318.73l38.68,41.2,78.6-49.49,108.53-19.17,36.07-76-28.47-79.2L348.34,90.94l-63,34.86-.07-.06L242.79,82,217.65,46.52,154.12,82l-27.67,25.1L95.39,146.45Z" style="fill:#FF9900"></path><path d="M352.65,347.24l-.1-.05L274.2,310.66l0,0-24.33-32.95L181.6,230.25l-24.68,88.92-.14-.3L128.58,259l-12.42-71.62,0,0L154,81.74l.11,0L233.55,100l9.26-18.21h.09l105.59,8.91v.11l.75,35.67,41.29,9.46,0,.24-41.13-4.06.53,25.34,0,0-48.14,86.31,73.8-8.07,0,.12L383,291.41l0,0Zm-78.29-36.78,78.19,36.45,30.2-55.55L375.32,236l-74,8.09.12-.21,48.24-86.49-.53-25.3-63.75-6.3-68.79,7.57.1-.2,16.76-32.95L154.14,82,116.42,187.41,128.83,259l28,59.51,24.59-88.62.15.11L250,277.52Zm75-178.62,39.2,3.87-39.31-9ZM233.68,100.25,217,133l68.36-7.52,63.74,6.3-.11-5.17Zm.12-.23L349,126.4l-.75-35.5L243,82Z" style="fill:#FF9900"></path><polygon points="348.29 90.88 297.42 53.84 297.56 53.64 348.44 90.68 348.29 90.88" style="fill:#FF9900"></polygon><path d="M244.22,383.21l0,0-48.56-23-.89.08.61-.22L119,318.91l0,0L80.59,242.14l-.46-.17.48-.05,35.54-54.53-21.05-41,.12-.05,65.35-28.57-6.7-36.15.26.22L185,107l32.06-14,.49-46.81h.14l80.23,7.43-.38.19L242.94,82,217.32,93.19l-.42,40.26-.2-.16-31.73-26-24.12,10.54,20.82,112.29h-.13L81.23,242.1l47.52,16.77,121.16,18.6,51.64-33.73.07.12L334,309.19l48.77-17.89,3-60.17L375.48,236l-.11-.22,10.35-4.88,2-41.5-38.22-32,.16-.09,40.94-21.47L388,189.23l31.21,26.1-.17.09L386,231l-3,60.46-.08,0-48.83,17.92,18.7,37.76-.16,0Zm-48.1-23,48.12,22.77,107.33-35.65Zm-76.89-41.44L195.65,360l138.09-50.67L301.46,244.1,250,277.73h-.05l-121.23-18.6L80.93,242.26Zm214.62-9.22-137.3,50.38L352.41,347Zm-238.41-163,21,40.95,0,.06L80.93,241.88l100.45-11.94L160.62,118ZM388,189.55l-2,41.18,32.78-15.46Zm-38-32.12L387.77,189l2.6-52.79ZM185.23,107.22l31.43,25.71.41-39.63Zm-31-25,6.57,35.42,23.94-10.46Zm63.57-35.71-.48,46.43,25.5-11.15,54.22-27.94Z" style="fill:#FF9900"></path><rect x="294.33" y="123.16" width="0.25" height="37.4" transform="translate(-31.82 161.13) rotate(-29.1)" style="fill:#FF9900"></rect><polygon points="382.85 291.6 361.02 276.02 361.16 275.82 382.99 291.4 382.85 291.6" style="fill:#FF9900"></polygon><rect x="176.88" y="336.2" width="47.9" height="0.25" transform="translate(-166.08 473.52) rotate(-79.66)" style="fill:#FF9900"></rect><rect x="175.2" y="312.63" width="60.01" height="0.25" style="fill:#FF9900"></rect><path d="M326.82,167.12a18,18,0,0,1-11,16.6l-7-16.6Z" style="fill:#FF9900"></path><path d="M306.49,165.89l7.05,16.59s0,0,0,0c-.55.22-1.1.43-1.66.6a18,18,0,0,1-23.36-17.21,18.25,18.25,0,0,1,.81-5.36,18,18,0,0,1,11.85-11.84,18,18,0,0,1,22.57,11.84,18.59,18.59,0,0,1,.81,5.36Z" style="fill:#FF9900"></path><path d="M306.49,165.89l7.05,16.59s0,0,0,0c-.55.22-1.1.43-1.66.6a18.07,18.07,0,0,1-10.7,0,18,18,0,1,1,22.57-22.57,18.59,18.59,0,0,1,.81,5.36Z" style="fill:#a6a6a6"></path><path d="M306.5,165.89l-11.75,13.66a18,18,0,1,1,29.76-13.66Z" style="fill:#455a64"></path><rect x="332.03" y="258.63" width="3.94" height="20.02" style="fill:#FF9900"></rect><rect x="338.8" y="261.96" width="3.94" height="16.7" style="fill:#FF9900"></rect><rect x="345.58" y="268.03" width="3.94" height="10.63" style="fill:#FF9900"></rect><rect x="352.35" y="261.67" width="3.94" height="16.99" style="fill:#FF9900"></rect><rect x="359.12" y="264.46" width="3.94" height="14.2" style="fill:#FF9900"></rect><rect x="365.89" y="255.84" width="3.94" height="22.81" style="fill:#FF9900"></rect><path d="M329.75,254.45l0,6.05,0,6.05,0,12.11-.1-.1c9.57,0,19.14,0,28.71,0l8,0,7.09.06-7.09,0-8,0c-9.57,0-19.14,0-28.71,0h-.1v-.09l0-12.11,0-6.05Z" style="fill:#a6a6a6"></path><path d="M328.88,255.84a3.5,3.5,0,0,1,1.74,0,3.5,3.5,0,0,1-1.74,0Z" style="fill:#a6a6a6"></path><path d="M328.88,258.24a3.7,3.7,0,0,1,.87-.11,3.24,3.24,0,0,1,.87.11,3.5,3.5,0,0,1-1.74,0Z" style="fill:#a6a6a6"></path><path d="M328.88,260.64a3.5,3.5,0,0,1,1.74,0,3.21,3.21,0,0,1-1.74,0Z" style="fill:#a6a6a6"></path><path d="M328.88,263.05a3.21,3.21,0,0,1,1.74,0,3.5,3.5,0,0,1-1.74,0Z" style="fill:#a6a6a6"></path><path d="M328.88,265.45a3.5,3.5,0,0,1,1.74,0,3.5,3.5,0,0,1-1.74,0Z" style="fill:#a6a6a6"></path><path d="M328.88,267.85a3.5,3.5,0,0,1,1.74,0,3.5,3.5,0,0,1-1.74,0Z" style="fill:#a6a6a6"></path><path d="M328.88,270.25a3.7,3.7,0,0,1,.87-.11,2.89,2.89,0,0,1,.87.11,3.5,3.5,0,0,1-1.74,0Z" style="fill:#a6a6a6"></path><path d="M328.88,272.65a3.5,3.5,0,0,1,1.74,0,3.21,3.21,0,0,1-1.74,0Z" style="fill:#a6a6a6"></path><path d="M328.88,275.06a3.21,3.21,0,0,1,1.74,0,3.5,3.5,0,0,1-1.74,0Z" style="fill:#a6a6a6"></path><path d="M185.89,312.76a10.67,10.67,0,1,1-1.41-5.32A10.69,10.69,0,0,1,185.89,312.76Z" style="fill:#dbdbdb"></path><path d="M184.48,307.44l-9.28,5.32V302.07A10.7,10.7,0,0,1,184.48,307.44Z" style="fill:#FF9900"></path><circle cx="175.2" cy="312.76" r="7.39" transform="translate(-161.53 435.72) rotate(-80.8)" style="fill:#fff"></circle><rect x="172.13" y="311.11" width="6.15" height="0.87" style="fill:#263238"></rect><rect x="170.6" y="313.53" width="9.2" height="0.87" style="fill:#a6a6a6"></rect><path d="M215.79,312.76a10.05,10.05,0,0,1-.12,1.56,10.62,10.62,0,1,1,.12-1.56Z" style="fill:#dbdbdb"></path><path d="M215.79,312.76a10.05,10.05,0,0,1-.12,1.56l-10.57-1.56V302.07a10.67,10.67,0,0,1,10.69,10.69Z" style="fill:#FF9900"></path><circle cx="205.1" cy="312.76" r="7.39" transform="translate(-146.31 440.78) rotate(-76.76)" style="fill:#fff"></circle><rect x="202.03" y="311.11" width="6.15" height="0.87" style="fill:#263238"></rect><rect x="200.5" y="313.53" width="9.2" height="0.87" style="fill:#a6a6a6"></rect><path d="M245.9,312.76a10.7,10.7,0,1,1-1.42-5.32A10.68,10.68,0,0,1,245.9,312.76Z" style="fill:#dbdbdb"></path><path d="M245.9,312.76a10.68,10.68,0,0,1-6.86,10l-3.83-10V302.07a10.7,10.7,0,0,1,10.69,10.69Z" style="fill:#FF9900"></path><path d="M242.6,312.76a7.39,7.39,0,1,1-7.39-7.39A7.39,7.39,0,0,1,242.6,312.76Z" style="fill:#fff"></path><rect x="232.13" y="311.11" width="6.15" height="0.87" style="fill:#263238"></rect><rect x="230.61" y="313.53" width="9.2" height="0.87" style="fill:#a6a6a6"></rect><rect x="152.17" y="141.36" width="4.18" height="27.11" transform="translate(308.53 309.84) rotate(180)" style="fill:#ebebeb"></rect><rect x="152.17" y="147.88" width="4.18" height="20.6" transform="translate(308.53 316.36) rotate(180)" style="fill:#FF9900"></rect><rect x="145.89" y="141.36" width="4.18" height="27.11" transform="translate(295.95 309.84) rotate(180)" style="fill:#ebebeb"></rect><rect x="145.89" y="150.62" width="4.18" height="17.85" transform="translate(295.95 319.1) rotate(180)" style="fill:#455a64"></rect><rect x="139.6" y="141.36" width="4.18" height="27.11" transform="translate(283.37 309.84) rotate(180)" style="fill:#ebebeb"></rect><rect x="139.6" y="160.23" width="4.18" height="8.25" transform="translate(283.37 328.71) rotate(180)" style="fill:#FF9900"></rect><rect x="133.31" y="141.36" width="4.18" height="27.11" transform="translate(270.79 309.84) rotate(180)" style="fill:#ebebeb"></rect><rect x="133.31" y="145.85" width="4.18" height="22.63" transform="translate(270.79 314.32) rotate(180)" style="fill:#455a64"></rect><rect x="127.02" y="141.36" width="4.18" height="27.11" transform="translate(258.22 309.84) rotate(180)" style="fill:#ebebeb"></rect><rect x="127.02" y="144.05" width="4.18" height="24.43" transform="translate(258.22 312.53) rotate(180)" style="fill:#FF9900"></rect><rect x="120.73" y="141.36" width="4.18" height="27.11" transform="translate(245.64 309.84) rotate(180)" style="fill:#ebebeb"></rect><rect x="120.73" y="153" width="4.18" height="15.48" transform="translate(245.64 321.48) rotate(180)" style="fill:#455a64"></rect><polygon points="117.94 141.36 118 148.14 118.05 154.92 118.09 168.48 117.94 168.33 128.24 168.32 138.54 168.34 148.84 168.39 159.14 168.48 148.84 168.57 138.54 168.62 128.24 168.63 117.94 168.63 117.79 168.63 117.79 168.48 117.84 154.92 117.88 148.14 117.94 141.36" style="fill:#ebebeb"></polygon><path d="M117.34,141.36a2.64,2.64,0,0,1,.62-.08,2.57,2.57,0,0,1,.62.08,1.86,1.86,0,0,1-.62.08A1.89,1.89,0,0,1,117.34,141.36Z" style="fill:#ebebeb"></path><path d="M117.34,144.05A2.64,2.64,0,0,1,118,144a2.57,2.57,0,0,1,.62.08,1.86,1.86,0,0,1-.62.08A1.89,1.89,0,0,1,117.34,144.05Z" style="fill:#ebebeb"></path><path d="M117.34,146.74a2.2,2.2,0,0,1,.62-.08,2.15,2.15,0,0,1,.62.08,2.15,2.15,0,0,1-.62.08A2.2,2.2,0,0,1,117.34,146.74Z" style="fill:#ebebeb"></path><path d="M117.34,149.43a2.2,2.2,0,0,1,.62-.08,2.15,2.15,0,0,1,.62.08,2.15,2.15,0,0,1-.62.08A2.2,2.2,0,0,1,117.34,149.43Z" style="fill:#ebebeb"></path><path d="M117.34,152.12A2.2,2.2,0,0,1,118,152a2.15,2.15,0,0,1,.62.08,2.15,2.15,0,0,1-.62.08A2.2,2.2,0,0,1,117.34,152.12Z" style="fill:#ebebeb"></path><path d="M117.34,154.81a1.89,1.89,0,0,1,.62-.08,1.86,1.86,0,0,1,.62.08,2.57,2.57,0,0,1-.62.08A2.64,2.64,0,0,1,117.34,154.81Z" style="fill:#ebebeb"></path><path d="M117.34,157.5a1.89,1.89,0,0,1,.62-.08,1.86,1.86,0,0,1,.62.08,2.57,2.57,0,0,1-.62.08A2.64,2.64,0,0,1,117.34,157.5Z" style="fill:#ebebeb"></path><path d="M117.34,160.18a2.64,2.64,0,0,1,.62-.08,2.57,2.57,0,0,1,.62.08,1.86,1.86,0,0,1-.62.08A1.89,1.89,0,0,1,117.34,160.18Z" style="fill:#ebebeb"></path><path d="M117.34,162.87a2.64,2.64,0,0,1,.62-.08,2.57,2.57,0,0,1,.62.08,1.86,1.86,0,0,1-.62.08A1.89,1.89,0,0,1,117.34,162.87Z" style="fill:#ebebeb"></path><path d="M117.34,165.56a2.2,2.2,0,0,1,.62-.08,2.15,2.15,0,0,1,.62.08,2.15,2.15,0,0,1-.62.08A2.2,2.2,0,0,1,117.34,165.56Z" style="fill:#ebebeb"></path><rect x="394.22" y="183.47" width="27.94" height="14.45" style="fill:#FF9900"></rect><rect x="397.43" y="186.79" width="21.5" height="0.59" style="fill:#fff"></rect><rect x="397.43" y="189.2" width="21.5" height="0.59" style="fill:#fff"></rect><rect x="397.43" y="191.61" width="21.5" height="0.59" style="fill:#fff"></rect><rect x="397.43" y="194.01" width="21.5" height="0.59" style="fill:#fff"></rect><rect x="94.33" y="283.25" width="27.94" height="14.45" style="fill:#FF9900"></rect><rect x="97.55" y="286.57" width="21.5" height="0.59" style="fill:#fff"></rect><rect x="97.55" y="288.98" width="21.5" height="0.59" style="fill:#fff"></rect><rect x="97.55" y="291.38" width="21.5" height="0.59" style="fill:#fff"></rect><rect x="97.55" y="293.79" width="21.5" height="0.59" style="fill:#fff"></rect><rect x="202.72" y="90.49" width="27.94" height="14.45" style="fill:#FF9900"></rect><rect x="205.94" y="93.81" width="21.5" height="0.59" style="fill:#fff"></rect><rect x="205.94" y="96.22" width="21.5" height="0.59" style="fill:#fff"></rect><rect x="205.94" y="98.63" width="21.5" height="0.59" style="fill:#fff"></rect><rect x="205.94" y="101.04" width="21.5" height="0.59" style="fill:#fff"></rect><rect x="257.81" y="349.91" width="27.94" height="14.45" style="fill:#FF9900"></rect><rect x="261.03" y="353.24" width="21.5" height="0.59" style="fill:#fff"></rect><rect x="261.03" y="355.64" width="21.5" height="0.59" style="fill:#fff"></rect><rect x="261.03" y="358.05" width="21.5" height="0.59" style="fill:#fff"></rect><rect x="261.03" y="360.46" width="21.5" height="0.59" style="fill:#fff"></rect></g></svg>